<svg xmlns="http://www.w3.org/2000/svg" xmlns:xlink="http://www.w3.org/1999/xlink" width="2560" height="1271" version="1.1">
<style type="text/css">
.l0{
  fill: #000000;
  stroke: #000000;
  stroke-linecap:round;
  stroke-linejoin:round;
  stroke-width: 9.98376;
}
.l1{
  fill: #00ddff;
  stroke: #00ddff;
  stroke-linecap:round;
  stroke-linejoin:round;
  stroke-width: 9.98376;
}
.l2{
  fill: #4f4f4f; fill-opacity: 0.2;
  stroke: #4f4f4f;
  stroke-linecap:round;
  stroke-linejoin:round;
  stroke-width: 9.98376;
}
.l3{
  fill: #cccccc; fill-opacity: 0.5;
  stroke: #cccccc;
  stroke-linecap:round;
  stroke-linejoin:round;
  stroke-width: 9.98376;
}
.l4{
  fill: #88dd00;
  stroke: #88dd00;
  stroke-linecap:round;
  stroke-linejoin:round;
  stroke-width: 9.98376;
}
.l5{
  fill: #bb2200;
  stroke: #bb2200;
  stroke-linecap:round;
  stroke-linejoin:round;
  stroke-width: 9.98376;
}
.l6{
  fill: #00aaff; fill-opacity: 0.5;
  stroke: #00aaff;
  stroke-linecap:round;
  stroke-linejoin:round;
  stroke-width: 9.98376;
}
.l7{
  fill: #ff0000; fill-opacity: 0.5;
  stroke: #ff0000;
  stroke-linecap:round;
  stroke-linejoin:round;
  stroke-width: 9.98376;
}
.l8{
  fill: #ffff00; fill-opacity: 0.5;
  stroke: #ffff00;
  stroke-linecap:round;
  stroke-linejoin:round;
  stroke-width: 9.98376;
}
.l9{
  fill: #ffffff; fill-opacity: 0.5;
  stroke: #ffffff;
  stroke-linecap:round;
  stroke-linejoin:round;
  stroke-width: 9.98376;
}
.l10{
  fill: #ff00ff;
  stroke: #ff00ff;
  stroke-linecap:round;
  stroke-linejoin:round;
  stroke-width: 9.98376;
}
.l11{
  fill: #00ff00; fill-opacity: 0.5;
  stroke: #00ff00;
  stroke-linecap:round;
  stroke-linejoin:round;
  stroke-width: 9.98376;
}
.l12{
  fill: #0044ff; fill-opacity: 0.5;
  stroke: #0044ff;
  stroke-linecap:round;
  stroke-linejoin:round;
  stroke-width: 9.98376;
}
.l13{
  fill: #aaaa00; fill-opacity: 0.5;
  stroke: #aaaa00;
  stroke-linecap:round;
  stroke-linejoin:round;
  stroke-width: 9.98376;
}
.l14{
  fill: #aaccaa; fill-opacity: 0.2;
  stroke: #aaccaa;
  stroke-linecap:round;
  stroke-linejoin:round;
  stroke-width: 9.98376;
}
.l15{
  fill: #ff7777; fill-opacity: 0.5;
  stroke: #ff7777;
  stroke-linecap:round;
  stroke-linejoin:round;
  stroke-width: 9.98376;
}
.l16{
  fill: #bfff81; fill-opacity: 0.5;
  stroke: #bfff81;
  stroke-linecap:round;
  stroke-linejoin:round;
  stroke-width: 9.98376;
}
.l17{
  fill: #00ffcc; fill-opacity: 0.2;
  stroke: #00ffcc;
  stroke-linecap:round;
  stroke-linejoin:round;
  stroke-width: 9.98376;
}
.l18{
  fill: #ce0097; fill-opacity: 0.5;
  stroke: #ce0097;
  stroke-linecap:round;
  stroke-linejoin:round;
  stroke-width: 9.98376;
}
.l19{
  fill: #d2d46b; fill-opacity: 0.2;
  stroke: #d2d46b;
  stroke-linecap:round;
  stroke-linejoin:round;
  stroke-width: 9.98376;
}
.l20{
  fill: #ef6158; fill-opacity: 0.2;
  stroke: #ef6158;
  stroke-linecap:round;
  stroke-linejoin:round;
  stroke-width: 9.98376;
}
.l21{
  fill: #fdb200; fill-opacity: 0.2;
  stroke: #fdb200;
  stroke-linecap:round;
  stroke-linejoin:round;
  stroke-width: 9.98376;
}
text {font-family: Sans-Serif;}
</style>
<rect class="l0" x="0" y="0" width="2560" height="1271"/>
<path class="l4" d="M1554.81 553.482L1575.36 553.482"/>
<path class="l4" d="M1565.08 543.211L1565.08 563.754"/>
<path class="l4" d="M1344.25 522.668L1375.06 522.668"/>
<path class="l4" d="M1559.95 522.668L1590.76 522.668"/>
<path class="l4" style="fill:none;" d="M1436.69 522.668 A30.8141 30.8141 0 0 0 1375.06 522.668"/>
<path class="l4" style="fill:none;" d="M1498.32 522.668 A30.8141 30.8141 0 0 0 1436.69 522.668"/>
<path class="l4" style="fill:none;" d="M1559.95 522.668 A30.8141 30.8141 0 0 0 1498.32 522.668"/>
<path class="l4" d="M1143.96 553.482L1164.5 553.482"/>
<path class="l4" d="M1154.23 543.211L1154.23 563.754"/>
<path class="l4" d="M933.396 522.668L964.21 522.668"/>
<path class="l4" d="M1149.09 522.668L1179.91 522.668"/>
<path class="l4" style="fill:none;" d="M1025.84 522.668 A30.8141 30.8141 0 0 0 964.21 522.668"/>
<path class="l4" style="fill:none;" d="M1087.47 522.668 A30.8141 30.8141 0 0 0 1025.84 522.668"/>
<path class="l4" style="fill:none;" d="M1149.09 522.668 A30.8141 30.8141 0 0 0 1087.47 522.668"/>
<path class="l4" d="M1262.08 193.985L1262.08 255.613"/>
<path class="l4" d="M1262.08 378.869L1262.08 440.497"/>
<path class="l4" d="M1272.35 224.799L1292.89 224.799"/>
<path class="l4" d="M1282.62 214.527L1282.62 235.07"/>
<path class="l4" d="M1262.08 286.427L1262.08 327.512L1272.35 327.512L1262.08 358.326L1251.81 327.512L1262.08 327.512L1262.08 286.427"/>
<circle class="l4" cx="1262.08" cy="317.241" r="61.6282" style="fill:none;" />
<path class="l4" d="M1262.08 1180.04L1262.08 1231.39"/>
<path class="l4" d="M1241.54 1231.39L1282.62 1231.39"/>
<path class="l4" d="M1262.08 1251.93L1282.62 1231.39"/>
<path class="l4" d="M1241.54 1231.39L1262.08 1251.93"/>
<path class="l4" d="M727.969 317.241L727.969 368.598"/>
<path class="l4" d="M707.426 368.598L748.512 368.598"/>
<path class="l4" d="M727.969 389.14L748.512 368.598"/>
<path class="l4" d="M707.426 368.598L727.969 389.14"/>
<path class="l4" d="M527.677 553.482L548.22 553.482"/>
<path class="l4" d="M537.949 543.211L537.949 563.754"/>
<path class="l4" d="M317.114 522.668L347.928 522.668"/>
<path class="l4" d="M532.813 522.668L563.627 522.668"/>
<path class="l4" style="fill:none;" d="M409.557 522.668 A30.8141 30.8141 0 0 0 347.928 522.668"/>
<path class="l4" style="fill:none;" d="M471.185 522.668 A30.8141 30.8141 0 0 0 409.557 522.668"/>
<path class="l4" style="fill:none;" d="M532.813 522.668 A30.8141 30.8141 0 0 0 471.185 522.668"/>
<path class="l4" d="M2130.01 553.482L2150.55 553.482"/>
<path class="l4" d="M2140.28 543.211L2140.28 563.754"/>
<path class="l4" d="M1919.45 522.668L1950.26 522.668"/>
<path class="l4" d="M2135.15 522.668L2165.96 522.668"/>
<path class="l4" style="fill:none;" d="M2011.89 522.668 A30.8141 30.8141 0 0 0 1950.26 522.668"/>
<path class="l4" style="fill:none;" d="M2073.52 522.668 A30.8141 30.8141 0 0 0 2011.89 522.668"/>
<path class="l4" style="fill:none;" d="M2135.15 522.668 A30.8141 30.8141 0 0 0 2073.52 522.668"/>
<path class="l4" d="M851.225 728.095L851.225 974.608"/>
<path class="l4" d="M810.14 810.266L892.311 892.437"/>
<path class="l4" d="M810.14 892.437L892.311 810.266"/>
<path class="l4" d="M1590.76 728.095L1590.76 974.608"/>
<path class="l4" d="M1549.68 810.266L1631.85 892.437"/>
<path class="l4" d="M1549.68 892.437L1631.85 810.266"/>
<path class="l5" d="M1580.49 512.397L1601.03 512.397L1601.03 532.94L1580.49 532.94L1580.49 512.397z"/>
<path class="l5" d="M1333.98 512.397L1354.52 512.397L1354.52 532.94L1333.98 532.94L1333.98 512.397z"/>
<path class="l5" d="M1169.64 512.397L1190.18 512.397L1190.18 532.94L1169.64 532.94L1169.64 512.397z"/>
<path class="l5" d="M923.125 512.397L943.667 512.397L943.667 532.94L923.125 532.94L923.125 512.397z"/>
<path class="l5" d="M1251.81 183.713L1272.35 183.713L1272.35 204.256L1251.81 204.256L1251.81 183.713z"/>
<path class="l5" d="M1251.81 430.226L1272.35 430.226L1272.35 450.769L1251.81 450.769L1251.81 430.226z"/>
<path class="l5" d="M1251.81 1169.76L1272.35 1169.76L1272.35 1190.31L1251.81 1190.31L1251.81 1169.76z"/>
<path class="l5" d="M717.698 306.97L738.24 306.97L738.24 327.512L717.698 327.512L717.698 306.97z"/>
<path class="l5" d="M553.356 512.397L573.898 512.397L573.898 532.94L553.356 532.94L553.356 512.397z"/>
<path class="l5" d="M306.843 512.397L327.386 512.397L327.386 532.94L306.843 532.94L306.843 512.397z"/>
<path class="l5" d="M2155.69 512.397L2176.23 512.397L2176.23 532.94L2155.69 532.94L2155.69 512.397z"/>
<path class="l5" d="M1909.18 512.397L1929.72 512.397L1929.72 532.94L1909.18 532.94L1909.18 512.397z"/>
<path class="l5" d="M2289.22 522.668L2302.06 522.668"/>
<path class="l5" d="M2345.71 543.211L2361.12 522.668L2345.71 502.125L2317.46 502.125L2302.06 522.668L2317.46 543.211L2345.71 543.211"/>
<path class="l5" d="M2284.08 517.533L2294.35 517.533L2294.35 527.804L2284.08 527.804L2284.08 517.533z"/>
<path class="l5" d="M181.019 522.668L193.858 522.668"/>
<path class="l5" d="M137.365 502.125L121.958 522.668L137.365 543.211L165.612 543.211L181.019 522.668L165.612 502.125L137.365 502.125"/>
<path class="l5" d="M188.722 517.533L198.994 517.533L198.994 527.804L188.722 527.804L188.722 517.533z"/>
<path class="l5" d="M840.954 717.824L861.497 717.824L861.497 738.367L840.954 738.367L840.954 717.824z"/>
<path class="l5" d="M840.954 964.337L861.497 964.337L861.497 984.88L840.954 984.88L840.954 964.337z"/>
<path class="l5" d="M1580.49 717.824L1601.03 717.824L1601.03 738.367L1580.49 738.367L1580.49 717.824z"/>
<path class="l5" d="M1580.49 964.337L1601.03 964.337L1601.03 984.88L1580.49 984.88L1580.49 964.337z"/>
<text fill="#cccccc"  xml:space="preserve" font-size="42.7289" transform="translate(1534.33, 635.296) rotate(270)" >L1</text>
<text fill="#cccccc"  xml:space="preserve" font-size="42.7289" transform="translate(1482.97, 631.296) rotate(270)" >L?</text>
<text fill="#cccccc"  xml:space="preserve" font-size="42.7289" transform="translate(1431.62, 679.296) rotate(270)" >0.75</text>
<text fill="#cccccc"  xml:space="preserve" font-size="42.7289" transform="translate(1123.48, 635.296) rotate(270)" >L2</text>
<text fill="#cccccc"  xml:space="preserve" font-size="42.7289" transform="translate(1072.12, 631.296) rotate(270)" >L?</text>
<text fill="#cccccc"  xml:space="preserve" font-size="42.7289" transform="translate(1020.76, 679.296) rotate(270)" >0.75</text>
<text fill="#cccccc"  xml:space="preserve" font-size="42.7289" transform="translate(1344.25, 314.953)" >I0</text>
<text fill="#cccccc"  xml:space="preserve" font-size="42.7289" transform="translate(1344.25, 363.963)" >2.8</text>
<text fill="#00ddff"  xml:space="preserve" font-size="42.7289" transform="translate(1292.89, 1239.38)" >0</text>
<text fill="#00ddff"  xml:space="preserve" font-size="42.7289" transform="translate(758.783, 376.581)" >0</text>
<text fill="#cccccc"  xml:space="preserve" font-size="42.7289" transform="translate(507.194, 635.296) rotate(270)" >L5</text>
<text fill="#cccccc"  xml:space="preserve" font-size="42.7289" transform="translate(455.837, 631.296) rotate(270)" >L?</text>
<text fill="#cccccc"  xml:space="preserve" font-size="42.7289" transform="translate(404.48, 679.296) rotate(270)" >0.75</text>
<text fill="#cccccc"  xml:space="preserve" font-size="42.7289" transform="translate(2109.53, 635.296) rotate(270)" >L6</text>
<text fill="#cccccc"  xml:space="preserve" font-size="42.7289" transform="translate(2058.17, 631.296) rotate(270)" >L?</text>
<text fill="#cccccc"  xml:space="preserve" font-size="42.7289" transform="translate(2006.81, 679.296) rotate(270)" >0.75</text>
<text fill="#00ddff"  xml:space="preserve" font-size="70.5026" transform="translate(2370.75, 548.167)" >OUT</text>
<text fill="#00ddff"  xml:space="preserve" font-size="70.5026" transform="translate(38.3288, 544.336)" >IN</text>
<text fill="#cccccc"  xml:space="preserve" font-size="42.7289" transform="translate(933.396, 807.979)" >J1</text>
<text fill="#cccccc"  xml:space="preserve" font-size="42.7289" transform="translate(933.396, 856.989)" >J</text>
<text fill="#cccccc"  xml:space="preserve" font-size="42.7289" transform="translate(933.396, 905.999)" >2</text>
<text fill="#cccccc"  xml:space="preserve" font-size="42.7289" transform="translate(1672.93, 807.979)" >J2</text>
<text fill="#cccccc"  xml:space="preserve" font-size="42.7289" transform="translate(1672.93, 856.989)" >J</text>
<text fill="#cccccc"  xml:space="preserve" font-size="42.7289" transform="translate(1672.93, 905.999)" >2</text>
<path class="l1" d="M851.225 522.668L851.225 728.095"/>
<path class="l1" d="M851.225 522.668L933.396 522.668"/>
<path class="l1" d="M1179.91 522.668L1344.25 522.668"/>
<path class="l1" d="M1590.76 522.668L1590.76 728.095"/>
<path class="l1" d="M851.225 974.608L1590.76 974.608"/>
<path class="l1" d="M1262.08 440.497L1262.08 522.668"/>
<path class="l1" d="M1262.08 974.608L1262.08 1180.04"/>
<path class="l1" d="M727.969 193.985L727.969 317.241"/>
<path class="l1" d="M727.969 193.985L1262.08 193.985"/>
<path class="l1" d="M563.627 522.668L851.225 522.668"/>
<path class="l1" d="M1590.76 522.668L1919.45 522.668"/>
<path class="l1" d="M2165.96 522.668L2289.22 522.668"/>
<path class="l1" d="M193.858 522.668L317.114 522.668"/>
<circle class="l1" cx="851.225" cy="522.668" r="15.2016"/>
<circle class="l1" cx="851.225" cy="522.668" r="15.2016"/>
<circle class="l1" cx="851.225" cy="522.668" r="15.2016"/>
<circle class="l1" cx="1262.08" cy="522.668" r="15.2016"/>
<circle class="l1" cx="1262.08" cy="974.608" r="15.2016"/>
<text fill="#cccccc"  xml:space="preserve" font-size="42.7289" transform="translate(1919.45, 849.064)" >pscan_type=rules </text>
<text fill="#cccccc"  xml:space="preserve" font-size="42.7289" transform="translate(1919.45, 898.074)" >body={RULE GO(GET(IN))</text>
<text fill="#cccccc"  xml:space="preserve" font-size="42.7289" transform="translate(1919.45, 947.084)" >    INC(J1),</text>
<text fill="#cccccc"  xml:space="preserve" font-size="42.7289" transform="translate(1919.45, 996.094)" >    SET(OUT),</text>
<text fill="#cccccc"  xml:space="preserve" font-size="42.7289" transform="translate(1919.45, 1045.1)" >    INC(J2);</text>
<text fill="#cccccc"  xml:space="preserve" font-size="42.7289" transform="translate(1919.45, 1094.11)" >}</text>
</svg>
